<svg xmlns="http://www.w3.org/2000/svg" viewBox="0 0 200 200" enable-background="new 0 0 200 200"><path fill="#2D2D2D" d="M102 30h75l-77-30-77 30h75v59h-75v14h66v37.3l-22.7 6.7 22.7 6.7v35.3l11 11 11-11v-15.3l22.7-6.7-22.7-6.7v-57.3h66v-14h-75zM158 36h19v49h-19zM131 36h19v49h-19zM104 36h19v49h-19zM77 36h19v49h-19zM50 36h19v49h-19zM23 36h19v49h-19z"/><path fill="#424242" d="M25 38h3.8v45h-3.8z"/><path fill="#808080" d="M28.8 38h3.8v45h-3.8z"/><path fill="#BEBFBF" d="M32.5 38h3.8v45h-3.8z"/><path fill="#FCFDFD" d="M36.2 38h3.8v45h-3.8z"/><path fill="#424242" d="M52 38h3.8v45h-3.8z"/><path fill="#808080" d="M55.8 38h3.8v45h-3.8z"/><path fill="#BEBFBF" d="M59.5 38h3.8v45h-3.8z"/><path fill="#FCFDFD" d="M63.2 38h3.8v45h-3.8z"/><path fill="#424242" d="M79 38h3.8v45h-3.8z"/><path fill="#808080" d="M82.8 38h3.8v45h-3.8z"/><path fill="#BEBFBF" d="M86.5 38h3.8v45h-3.8z"/><path fill="#FCFDFD" d="M90.2 38h3.8v45h-3.8z"/><path fill="#424242" d="M106 38h3.8v45h-3.8z"/><path fill="#808080" d="M109.8 38h3.8v45h-3.8z"/><path fill="#BEBFBF" d="M113.5 38h3.8v45h-3.8z"/><path fill="#FCFDFD" d="M117.2 38h3.8v45h-3.8z"/><path fill="#424242" d="M133 38h3.8v45h-3.8z"/><path fill="#808080" d="M136.8 38h3.8v45h-3.8z"/><path fill="#BEBFBF" d="M140.5 38h3.8v45h-3.8z"/><path fill="#FCFDFD" d="M144.2 38h3.8v45h-3.8z"/><path fill="#424242" d="M160 38h3.8v45h-3.8z"/><path fill="#808080" d="M163.8 38h3.8v45h-3.8z"/><path fill="#BEBFBF" d="M167.5 38h3.8v45h-3.8z"/><path fill="#FCFDFD" d="M171.2 38h3.8v45h-3.8z"/><path fill="#424242" d="M25 91h8.3v10h-8.3z"/><path fill="#575757" d="M33.3 91h16.7v10h-16.7z"/><path fill="#6B6C6C" d="M50 91h16.7v10h-16.7z"/><path fill="#808080" d="M66.7 91h16.7v10h-16.7z"/><path fill="#959595" d="M83.3 91h16.7v10h-16.7z"/><path fill="#A9AAAA" d="M100 91h16.7v10h-16.7z"/><path fill="#BEBFBF" d="M116.7 91h16.7v10h-16.7z"/><path fill="#D3D3D3" d="M133.3 91h16.7v10h-16.7z"/><path fill="#E7E8E8" d="M150 91h16.7v10h-16.7z"/><path fill="#FCFDFD" d="M166.7 91h8.3v10h-8.3zM43.2 104.7h-.5c-.4 0-.8.3-.8.7 0 .3-.1.4-.1.4h-.1s-.2 0-1.1-.4c-1.4-.5-2.7-.8-3.9-.8-1.7 0-3.3.4-4.8 1.2-1.5.8-2.7 2-3.6 3.5-.9 1.5-1.3 3.1-1.3 4.8 0 1.6.4 3.1 1.2 4.5.8 1.4 2 2.5 3.4 3.3 1.4.7 3.1 1.1 5 1.1 1.4 0 2.7-.2 3.8-.7 1.1-.5 2.1-1.2 3.1-2.2.2-.2.2-.4.2-.6v-1.4c0-.4-.2-.7-.6-.8l-.3-.1c-.2 0-.5.1-.6.3-.9 1-1.7 1.7-2.4 2.1-.7.4-1.5.6-2.4.6-1 0-1.9-.2-2.5-.7-.6-.5-1.1-1.3-1.4-2.3-.3-1.1-.5-2.3-.5-3.7 0-1.3.2-2.6.7-3.7.3-.8.8-1.4 1.5-1.9s1.4-.7 2.3-.7c1 0 1.9.3 2.7 1 .8.7 1.4 1.6 1.7 2.9.1.4.4.7.8.7h.5c.5 0 .9-.4.9-.9v-5.6c-.1-.2-.5-.6-.9-.6z"/><path d="M36.6 122.8c-1.8 0-3.4-.4-4.8-1.1-1.4-.7-2.5-1.8-3.3-3.1-.8-1.3-1.1-2.8-1.1-4.3 0-1.6.4-3.1 1.3-4.6.8-1.4 2-2.6 3.4-3.4 1.4-.8 3-1.2 4.6-1.2 1.2 0 2.4.3 3.7.8 1 .4 1.2.4 1.2.4.1 0 .3 0 .4-.2.1-.1.2-.3.2-.6 0-.2.2-.4.4-.4h.5c.2 0 .4.2.4.4v5.6c0 .2-.2.4-.4.4h-.5c-.2 0-.4-.1-.4-.3-.3-1.4-.9-2.4-1.8-3.1-.9-.7-1.8-1.1-3-1.1-.9 0-1.8.3-2.5.8-.8.5-1.3 1.2-1.7 2.1-.5 1.1-.7 2.4-.7 3.8s.2 2.7.5 3.8c.3 1.1.9 1.9 1.6 2.5.7.5 1.6.8 2.8.8.9 0 1.8-.2 2.6-.6.8-.4 1.6-1.2 2.5-2.2.1-.1.2-.1.3-.1h.1c.2.1.3.2.3.4v1.4c0 .1 0 .2-.1.3-.9 1-1.9 1.7-3 2.1-.9.5-2.1.7-3.5.7z"/><path fill="#FCFDFD" d="M60.7 104.9c-.9 0-1.7.2-2.4.7-.6.4-1.1 1-1.5 1.8-.3.7-.6 1.6-1 2.9-.3 1.2-.6 1.6-.7 1.8-.1.1-.3.3-.4.3-.1 0-.4.1-1.1.1v-3.9c0-.9.2-1.1.2-1.1s.2-.2 1-.2h.3c.5 0 .9-.4.9-.9v-.4c0-.5-.4-.9-.9-.9h-8.4c-.5 0-.9.4-.9.9v.4c0 .5.4.9.9.9h.3c.7 0 .9.1.9.1s.2.3.2 1.4v10.8c0 .8-.2 1-.2 1s-.3.2-1.3.2c-.5 0-.8.4-.8.9v.4c0 .5.4.9.9.9h8.4c.5 0 .9-.4.9-.9v-.4c0-.5-.4-.9-.9-.9-1 0-1.3-.2-1.3-.2s-.1-.2-.1-.8v-4.1c.1.1.2.3.3.6l3.3 6.2c.1.3.4.4.8.4h5.4c.5 0 .9-.4.9-.9v-.4c0-.5-.4-.9-.9-.9-.3 0-.6-.1-.8-.2-.2-.1-.4-.4-.6-.7l-1.6-2.9c-.7-1.4-1.2-2.2-1.5-2.6-.3-.4-.6-.7-.9-1l-.3-.2.3-.6c.2-.5.5-1.3.8-2.4.3-1 .5-1.5.6-1.8.2 1.3 1 2 2.3 2 .7 0 1.3-.2 1.7-.7.5-.4.7-1.1.7-1.8 0-.9-.3-1.6-1-2.2-.7-.4-1.5-.7-2.5-.7z"/><path d="M58.1 122.5c-.2 0-.3-.1-.4-.2l-3.3-6.2c-.5-.9-.7-1.1-.7-1.1s-.1-.1-.4-.1v5c0 .8.2 1.1.3 1.1.1.1.5.2 1.5.2.2 0 .4.2.4.4v.4c0 .2-.2.4-.4.4h-8.4c-.2 0-.4-.2-.4-.4v-.4c0-.2.2-.4.4-.4 1.1 0 1.5-.2 1.5-.3.1-.1.3-.4.3-1.3v-10.8c0-1.1-.2-1.5-.3-1.7-.1-.1-.3-.3-1.2-.3h-.3c-.2 0-.4-.2-.4-.4v-.4c0-.2.2-.4.4-.4h8.4c.2 0 .4.2.4.4v.4c0 .2-.2.4-.4.4h-.3c-.9 0-1.2.2-1.3.3-.1.1-.3.4-.3 1.4v4.4c1 0 1.5-.1 1.6-.1.2-.1.5-.2.7-.5.2-.2.4-.7.7-1.9.3-1.2.6-2.2.9-2.8.3-.7.8-1.2 1.3-1.6.6-.4 1.3-.6 2.2-.6.9 0 1.6.3 2.1.8s.8 1.2.8 1.9c0 .6-.2 1.1-.6 1.5-.4.4-.9.5-1.4.5-.7 0-1.8-.3-1.9-2 0-.3-.1-.4-.1-.4-.2 0-.3 0-.6.4-.2.4-.5 1.1-.8 2.1-.3 1-.5 1.8-.8 2.3-.1.3-.3.6-.5.9.3.1.5.2.7.4.3.2.6.5.8.9.2.3.7 1.2 1.4 2.5l1.6 2.9c.2.4.5.6.8.8.3.2.6.3 1.1.3.2 0 .4.2.4.4v.4c0 .2-.2.4-.4.4h-5.1z"/><path fill="#FCFDFD" d="M126.4 104.9c-1.1 0-2.4.3-3.8.8-.7.2-.9.3-.9.3s-.1-.1-.2-.4c-.1-.4-.4-.6-.8-.6h-.4c-.5 0-.9.4-.9.9v5.2c0 .5.4.9.9.9h.4c.4 0 .8-.3.8-.7.2-1.1.7-1.9 1.4-2.6.7-.6 1.6-.9 2.6-.9 1.2 0 2.1.5 2.8 1.5.6.9 1 2.1 1.1 3.5h-5.5c-.5 0-.9.4-.9.9v1c0 .5.4.9.9.9h5.6c-.1 1.7-.5 3-1.1 3.9-.7 1-1.6 1.4-2.9 1.4-.8 0-1.5-.1-2.1-.4-.6-.3-1.3-.9-2.1-1.7-.2-.2-.4-.3-.6-.3-.2 0-.4.1-.6.2l-.5.5c-.3.3-.4.8-.1 1.2 1.1 1.3 2.1 2.2 3.2 2.6 1.1.4 2.3.7 3.6.7 2.6 0 4.9-.9 6.6-2.6 1.7-1.7 2.6-4 2.6-6.6 0-2-.5-3.7-1.4-5.1-.9-1.4-2.1-2.5-3.4-3.2-1.5-1-2.9-1.3-4.3-1.3z"/><path d="M126.2 123c-1.2 0-2.4-.2-3.4-.6-1-.4-2-1.3-3.1-2.5-.1-.2-.1-.4.1-.6l.5-.5c.1-.1.2-.1.3-.1.1 0 .2 0 .3.1.8.9 1.6 1.5 2.2 1.8.6.3 1.3.5 2.3.5 1.4 0 2.5-.5 3.3-1.6.7-1 1.1-2.6 1.2-4.6h-6c-.2 0-.4-.2-.4-.4v-1c0-.2.2-.4.4-.4h6c-.1-1.7-.5-3.1-1.2-4.2s-1.8-1.6-3.1-1.6c-1.1 0-2.1.3-2.9 1-.8.7-1.3 1.6-1.5 2.8 0 .2-.2.3-.4.3h-.4c-.2 0-.4-.2-.4-.4v-5.2c0-.2.2-.4.4-.4h.4c.2 0 .4.1.4.3.2.7.5.7.6.7.1 0 .3 0 1-.3 1.3-.5 2.6-.7 3.7-.7 1.3 0 2.7.3 4 1 1.3.6 2.4 1.7 3.3 3 .9 1.4 1.3 3 1.3 4.9 0 2.5-.8 4.6-2.5 6.3-1.7 1.6-3.8 2.4-6.4 2.4z"/><path fill="#FCFDFD" d="M158.4 105.3h-6.6c-.3 0-.7.2-.8.5l-3.6 8.7-3.7-8.7c-.1-.3-.4-.5-.8-.5h-6.6c-.5 0-.9.4-.9.9v.4c0 .5.4.9.9.9h.5c.4 0 .6.1.7.1.1.1.2.1.2.1s.1.2.1 1.2v11.2l-.2.5c-.1.1-.2.2-.3.2-.2.1-.4.1-.6.1h-.2c-.5 0-.9.4-.9.9v.4c0 .5.4.9.9.9h5.5c.5 0 .9-.4.9-.9v-.4c0-.5-.4-.9-.9-.9-.7 0-1-.1-1.1-.2-.2-.1-.3-.3-.3-.5v-8.4l4.6 10.8c.1.3.4.5.8.5h.3c.3 0 .7-.2.8-.5l4.5-10.8v7.7c0 .9-.1 1.2-.1 1.2l-.1.1c-.1.1-.3.1-.7.1h-.7c-.5 0-.9.4-.9.9v.4c0 .5.4.9.9.9h8.4c.5 0 .9-.4.9-.9v-.4c0-.5-.4-.9-.9-.9h-.5c-.4 0-.6-.1-.7-.1-.1-.1-.2-.1-.2-.1s-.1-.2-.1-1.2v-10.6c0-.9.1-1.1.1-1.2 0-.1.1-.1.1-.1.1-.1.3-.1.7-.1h.5c.5 0 .9-.4.9-.9v-.4c.1-.6-.3-.9-.8-.9z"/><path d="M150 122.6c-.2 0-.4-.2-.4-.4v-.4c0-.2.2-.4.4-.4h.5c.4 0 .7-.1.9-.2.1-.1.2-.2.3-.4 0 0 .1-.3.1-1.3v-9.8l-5.4 12.7c-.1.2-.2.3-.4.3h-.3c-.2 0-.3-.1-.4-.3l-5.5-12.7v9.3c0 1 0 1.3.1 1.4.1.3.2.5.5.7.3.2.7.3 1.4.3.2 0 .4.2.4.4v.4c0 .2-.2.4-.4.4h-5.5c-.2 0-.4-.2-.4-.4v-.4c0-.2.2-.4.4-.4h.2c.3 0 .6 0 .8-.1.2-.1.4-.2.5-.4.1-.2.2-.4.3-.7v-11.299999999999999c0-1.1-.1-1.3-.1-1.4 0-.1-.2-.2-.4-.3-.2-.1-.5-.2-.9-.2h-.5c-.2 0-.4-.2-.4-.4v-.4c0-.2.2-.4.4-.4h6.6c.2 0 .3.1.4.3l4.1 9.7 4-9.7c.1-.2.2-.3.4-.3h6.6c.2 0 .4.2.4.4v.4c0 .2-.2.4-.4.4h-.5c-.4 0-.7.1-.9.2-.1.1-.2.2-.3.4 0 0-.1.3-.1 1.3v10.6c0 1.1.1 1.3.1 1.4 0 .1.2.2.4.3.2.1.5.2.9.2h.5c.2 0 .4.2.4.4v.4c0 .2-.2.4-.4.4h-8.4z"/><path fill="#FCFDFD" d="M166.3 104.9c-1.1 0-2.2.2-3.3.7-.1.1-.2.1-.3.1v-.1c-.1-.4-.4-.7-.8-.7h-.4c-.5 0-.9.4-.9.9v5c0 .5.4.9.9.9h.5c.5 0 .8-.4.9-.8.1-1.1.3-1.9.7-2.5.4-.5.9-.7 1.5-.7.4 0 .8.2 1.1.5.3.3.5.9.5 1.8 0 1-.2 1.7-.5 2.2-.3.4-.9.6-1.7.6h-.7c-.2 0-.4.1-.6.2-.2.2-.3.4-.3.6v1c0 .5.4.8.8.9 1.1 0 1.7.2 2 .3.3.1.6.4.9.8.3.4.4 1 .4 1.6 0 .8-.2 1.5-.6 2-.4.5-1 .7-1.7.7-1 0-1.9-.5-2.8-1.5-.2-.2-.4-.3-.6-.3-.2 0-.4.1-.6.2l-.5.5c-.3.3-.3.8-.1 1.1.7.9 1.5 1.6 2.4 2.1.9.4 2.1.6 3.5.6 1.5 0 2.8-.2 3.8-.6 1.1-.4 1.9-1.1 2.5-2 .6-.9.9-1.8.9-2.8 0-1.1-.4-2.2-1.2-3.2-.4-.5-1-.9-1.6-1.2l.5-.3c.6-.5 1.1-1.1 1.4-1.7.3-.6.4-1.2.4-1.9 0-1.3-.5-2.5-1.6-3.4-1.4-1.1-2.9-1.6-4.8-1.6z"/><path d="M165.9 123c-1.4 0-2.5-.2-3.4-.6-.8-.4-1.6-1-2.3-1.9-.1-.2-.1-.4 0-.6l.5-.5c.1-.1.2-.1.3-.1l.3.1c1 1.1 2.1 1.6 3.2 1.6.9 0 1.5-.3 2-.8.5-.6.8-1.3.8-2.2 0-.7-.2-1.3-.5-1.8s-.7-.8-1.1-1c-.5-.2-1.2-.3-2.2-.3-.2 0-.4-.2-.4-.4v-1c0-.1 0-.2.1-.3.1-.1.2-.1.3-.1h.7c1 0 1.6-.2 2-.8.4-.5.6-1.4.6-2.4s-.2-1.7-.6-2.1c-.4-.4-.8-.6-1.4-.6-.7 0-1.3.3-1.8.9-.5.6-.8 1.5-.8 2.7 0 .2-.2.4-.4.4h-.5c-.2 0-.4-.2-.4-.4v-5c0-.2.2-.4.4-.4h.4c.2 0 .4.2.4.4 0 .1.1.5.2.5 0 0 .2 0 .7-.2 1.1-.4 2.2-.6 3.2-.6 1.7 0 3.1.4 4.1 1.3 1 .9 1.5 1.9 1.5 3.1 0 .6-.1 1.1-.4 1.7-.3.6-.7 1.1-1.3 1.6-.3.3-.7.5-1.3.7 1 .3 1.8.8 2.4 1.4.8.9 1.1 1.9 1.1 2.9 0 .9-.3 1.8-.8 2.5-.5.8-1.3 1.4-2.3 1.8-.7.3-1.9.5-3.3.5z"/><path fill="#424242" d="M50.1 21.5l-16.6 6.5h16.6z"/><path fill="#E3EDE9" d="M149.7 28h16.6l-16.6-6.5z"/><g fill="#5B5B5C"><path d="M66.7 15.1l-16.6 6.4v6.5h.9l15.7-6.3zM51 28h15.7v-1.8z"/></g><path fill="#CCD5D1" d="M139.8 17.7l-6.7.8v9.5h16.6v-6.5z"/><path fill="#B6BCBA" d="M116.5 20.4v7.6h16.6v-9.5z"/><g fill="#9FA4A3"><path d="M107.8 5.2l-7.9-3.1v6.3zM99.9 22.3v5.7h16.6v-7.6z"/></g><g fill="#888C8B"><path d="M99.9 8.4v-6.3l-16.6 6.5v6.4zM83.3 24.3v3.7h16.6v-5.7z"/></g><g fill="#727374"><path d="M66.7 26.2v1.8h16.6v-3.7zM83.3 15v-6.4l-16.6 6.5v6.6z"/></g><g fill="#FCFDFD"><path d="M109 159.7v-56.7h-4.5v55.3zM104.5 175.7v17l4.5-4.5v-13.9z"/></g><g fill="#424242"><path d="M91 154.3v33.9l4.5 4.5v-37zM95.5 138.3v-35.3h-4.5v36.7z"/></g><path fill="#808080" d="M98 156.4l-2.5-.7v37l2.5 2.5v-11.2h2v-7h-2z"/><path fill="#BEBFBF" d="M100 177v7h2v11.2l2.5-2.5v-17z"/><path fill="#808080" d="M98 130v-27h-2.5v35.3l4.5-1.3v-7z"/><path fill="#BEBFBF" d="M102 103v27h-2v7h2v20.6l2.5.7v-55.3z"/><path fill="#FCFDFD" d="M92 6.4c-1.7 0-3.2.5-4.5 1.6-1.3 1.1-2.2 2.7-2.8 4.8-.1.4.1.9.5 1l.6.2h.3c.3 0 .6-.2.7-.4.7-1.3 1.7-1.9 2.9-1.9.7 0 1.3.3 1.8.8.5.6.8 1.2.8 2.1 0 1.3-.4 2.7-1.1 4.2-.8 1.5-3.1 4.5-6.8 8.9-.1.2-.2.3-.2.5v.3c0 .5.4.9.9.9h12.3c.4 0 .8-.3.8-.7l1.2-6c0-.2 0-.5-.2-.7-.2-.2-.4-.3-.7-.3h-.6c-.3 0-.6.2-.8.5-.4.9-.6 1.1-.7 1.2-.1.1-.3.2-.4.2-.1 0-.5.1-1.9.1h-2.4c2.7-2.8 4.5-5 5.5-6.7.8-1.5 1.2-3.1 1.2-4.6 0-.9-.3-1.9-.9-2.8-.6-1-1.4-1.8-2.4-2.3-.8-.6-1.9-.9-3.1-.9z"/><path d="M85.1 29c-.2 0-.4-.2-.4-.4v-.3c0-.1 0-.2.1-.3 3.7-4.4 6-7.5 6.8-9 .8-1.5 1.2-2.9 1.2-4.4 0-1-.3-1.8-.9-2.4-.6-.6-1.3-.9-2.1-.9-1.4 0-2.5.7-3.3 2.2-.1.1-.2.2-.4.2h-.1l-.6-.2c-.2-.1-.3-.3-.3-.5.6-2 1.5-3.6 2.7-4.6 1.2-1 2.6-1.5 4.2-1.5 1.1 0 2.2.3 3.1.8.9.5 1.7 1.3 2.2 2.2.5.9.8 1.8.8 2.6 0 1.4-.4 2.9-1.2 4.4-1 1.8-3 4.3-6.1 7.3h3.5c1.3 0 1.8-.1 2.1-.1.3-.1.5-.2.6-.4.1-.1.4-.5.8-1.3.1-.1.2-.2.4-.2h.6c.1 0 .2.1.3.2.1.1.1.2.1.4l-1.2 6c0 .2-.2.3-.4.3h-12.5z"/><path fill="#FCFDFD" d="M114.9 6.4c-2.8 0-5.3.7-7.5 1.9s-3.8 2.9-5 5.1c-1.2 2.1-1.8 4.4-1.8 6.8 0 1.7.3 3.3 1 4.7.7 1.5 1.6 2.6 2.8 3.4 1.2.8 2.5 1.2 4 1.2 1.3 0 2.6-.4 3.7-1 1.2-.7 2.1-1.7 2.7-3 .6-1.2.9-2.6.9-4.1 0-2.1-.6-3.9-1.8-5.1-1.2-1.3-2.7-1.9-4.5-1.9-.6 0-1.2.1-1.8.2.3-.7.6-1.4.9-1.9.6-.9 1.4-1.7 2.4-2.4s2.4-1.2 4.1-1.7c.4-.1.6-.4.6-.8v-.6c0-.2-.1-.4-.2-.6-.1-.1-.3-.2-.5-.2zm-7.9 11.4c.4-.2.7-.2.8-.2.3 0 .7.1 1 .6.4.6.9 2.1.9 5.3 0 2-.3 2.6-.4 2.8-.2.3-.4.4-.5.4-.1 0-.3 0-.6-.3-.2-.3-.6-.9-.9-2.4-.3-1.2-.4-2.5-.4-3.9 0-.4 0-1.2.1-2.3z"/><path d="M108.4 29c-1.3 0-2.6-.4-3.7-1.1-1.1-.7-2-1.8-2.7-3.2-.6-1.4-.9-2.9-.9-4.5 0-2.4.6-4.6 1.7-6.6s2.8-3.7 4.9-4.9c2.1-1.2 4.5-1.8 7.3-1.8.1 0 .2 0 .3.1.1.1.1.2.1.3v.4c0 .2-.1.4-.3.4-1.8.4-3.2 1-4.3 1.7-1 .7-1.9 1.5-2.5 2.5-.5.8-.9 1.7-1.2 2.8.1-.1.2-.1.3-.1.7-.2 1.4-.3 2.1-.3 1.6 0 3 .6 4.1 1.8 1.1 1.2 1.6 2.8 1.6 4.8 0 1.4-.3 2.7-.9 3.9-.6 1.2-1.4 2.1-2.5 2.8-1 .7-2.2 1-3.4 1zm-1.8-11.5c-.1 1.3-.1 2.2-.1 2.8 0 1.4.1 2.7.4 4 .3 1.2.6 2.1 1 2.5.3.3.5.4.9.4.3 0 .6-.2.9-.6.2-.3.5-1.1.5-3.1 0-2.7-.3-4.6-.9-5.5-.4-.6-.8-.8-1.4-.8-.4-.1-.7 0-1.3.3z"/></svg>